<svg xmlns="http://www.w3.org/2000/svg" width="1024" height="1024"><path d="M636.882 248.25c-.066.688-.015 1.7.112 2.25.477 2.071 2.135 13.173 2.613 17.5.274 2.475.877 5.4 1.34 6.5.464 1.1 1.618 6.275 2.566 11.5.948 5.225 2.361 12.875 3.14 17 1.846 9.775 3.241 18.069 4.288 25.5.466 3.3 1.53 8.925 2.366 12.5 1.96 8.38 8.361 43.797 10.302 57 .283 1.925.896 4.4 1.361 5.5.465 1.1 1.847 7.85 3.071 15 1.224 7.15 2.642 15.25 3.151 18 .51 2.75 1.366 7.7 1.903 11 2.073 12.742 5.254 29.276 7.071 36.75l.911 3.75h27.262c20.178 0 27.579.318 28.486 1.225.967.967 1.639.967 3.186 0 1.499-.936 18.251-1.225 70.975-1.225 56.06 0 69.014-.245 69.014-1.304 0-2.103-4.87-11.268-7.022-13.216-1.088-.985-1.978-2.162-1.978-2.618 0-.455-1.097-2.073-2.439-3.595-5.938-6.738-8.561-10.097-8.561-10.962 0-.512-1.35-2.224-3-3.805s-3-3.387-3-4.013c0-.626-1.125-2.195-2.5-3.487-1.375-1.292-2.5-2.861-2.5-3.487 0-.626-1.35-2.432-3-4.013s-3-3.387-3-4.013c0-.626-1.125-2.195-2.5-3.487-1.375-1.292-2.5-2.764-2.5-3.271 0-.507-2.475-3.741-5.5-7.186-3.025-3.446-5.5-6.605-5.5-7.022 0-.416-1.237-2.276-2.75-4.133a4467.743 4467.743 0 01-5.5-6.769c-1.513-1.866-2.75-3.81-2.75-4.319 0-.509-1.35-2.219-3-3.8s-3-3.387-3-4.013c0-.626-1.125-2.195-2.5-3.487-1.375-1.292-2.5-2.861-2.5-3.487 0-.626-1.35-2.432-3-4.013s-3-3.288-3-3.793c0-.506-1.125-1.804-2.5-2.886-1.375-1.081-2.5-2.524-2.5-3.206 0-.683-1.35-2.534-3-4.115-1.65-1.581-3-3.387-3-4.013 0-.626-1.125-2.195-2.5-3.487-1.375-1.292-2.5-2.861-2.5-3.487 0-.626-1.35-2.432-3-4.013s-3-3.387-3-4.013c0-.626-1.125-2.195-2.5-3.487-1.375-1.292-2.5-2.861-2.5-3.487 0-.626-1.35-2.432-3-4.013s-3-3.387-3-4.013c0-.626-1.125-2.195-2.5-3.487-1.375-1.292-2.5-2.78-2.5-3.307 0-.527-.857-1.701-1.903-2.609-1.047-.908-11.4-15.586-23.006-32.618-26.871-39.431-27.111-39.755-30.091-40.577-1.375-.379-17.462-.734-35.75-.789-25.929-.078-33.276.175-33.368 1.15m-308.251 2c-2.22 2.014-24.297 31.278-76.882 101.915-47.797 64.205-64.767 87.167-70.749 95.731-1.925 2.755-3.838 5.031-4.25 5.057-.412.026-.75.892-.75 1.925 0 1.032-.67 2.433-1.489 3.113-.819.68-1.242 1.635-.941 2.122.301.488.071.887-.511.887s-1.059.637-1.059 1.417c0 .779-.562 1.643-1.25 1.921-1 .403-1 .52 0 .583.688.043 1.25.577 1.25 1.186 0 .62-.77.839-1.75.498-1.553-.541-1.542-.448.1.826 1.033.802 1.53 1.954 1.125 2.609-.538.87-.947.823-1.585-.183-.676-1.067-.863-.996-.875.334-.023 2.589 1.946 3.226 3.583 1.159 1.291-1.629 1.294-1.416.033 1.785-1.276 3.238-1.256 3.811.182 5.25.889.888 1.125 1.615.526 1.615-1.444 0-1.41 4.599.036 4.902 2.703.565 175.625 1.213 175.625.658 0-.339 1.084-6.117 2.409-12.839 2.562-13.002 4.218-21.943 7.633-41.221 1.169-6.6 2.803-15.375 3.632-19.5.829-4.125 1.869-9.75 2.311-12.5.442-2.75 1.995-11.3 3.451-19 1.457-7.7 3.04-16.25 3.519-19 .478-2.75 1.095-6.125 1.37-7.5.275-1.375.99-5.087 1.588-8.25.598-3.163 1.551-8.113 2.117-11 1.52-7.745 10.953-59.357 12.017-65.75.503-3.025 1.513-8.457 2.244-12.071.73-3.614 1.151-7.102.935-7.75-.29-.871-8.33-1.179-30.754-1.179-30.083 0-30.383.021-32.841 2.25m95.529 1.5c-.791 3.234-3.772 19.161-7.159 38.25-1.291 7.272-4.627 25.501-7.504 41-1.276 6.875-3.283 17.9-4.46 24.5-1.177 6.6-2.533 14.025-3.013 16.5-.48 2.475-1.36 7.2-1.955 10.5s-1.958 10.5-3.028 16-2.893 15.4-4.051 22a4815.027 4815.027 0 01-4.934 27.75c-.52 2.887-2.171 11.55-3.67 19.25-1.499 7.7-2.762 15.125-2.806 16.5l-.08 2.5 132.946.254c73.121.139 133.33-.13 133.799-.599.471-.471-.31-6.863-1.74-14.254-2.334-12.058-4.569-23.945-7.504-39.901-.556-3.025-2.385-13.15-4.064-22.5-1.679-9.35-3.699-20.375-4.489-24.5-2.437-12.714-3.246-17.077-5.473-29.5-1.184-6.6-3.196-17.625-4.472-24.5-2.981-16.061-6.239-33.869-7.591-41.5-.585-3.3-1.446-8.025-1.913-10.5-.468-2.475-1.62-8.775-2.561-14-.941-5.225-2.117-11.187-2.613-13.25l-.902-3.75H425.077l-.917 3.75M168 473.409c0 .19.675.906 1.5 1.591.865.718 1.5.815 1.5.229 0-.558-.675-1.274-1.5-1.591-.825-.316-1.5-.419-1.5-.229m1 4.532c0 .518.445 1.216.989 1.552.566.35.734-.051.393-.941-.665-1.732-1.382-2.049-1.382-.611m1.27 5.128c-.173 2.297.298 2.499 1.079.463.31-.807.227-1.676-.185-1.931-.412-.254-.814.406-.894 1.468m220.134 53.321c-.444 1.156 8.687 30.454 11.564 37.11.476 1.1 1.092 2.9 1.369 4 .278 1.1 5.509 16.625 11.625 34.5s15.357 45.1 20.535 60.5c5.178 15.4 13.51 39.925 18.516 54.5 5.005 14.575 13.338 39.1 18.518 54.5 9.332 27.749 18.938 55.877 31.93 93.5 3.704 10.725 6.968 20.513 7.253 21.75.385 1.666 1.237 2.25 3.286 2.25 2.05 0 2.901-.583 3.283-2.25.283-1.237 4.631-14.175 9.662-28.75 5.03-14.575 11.343-33.025 14.029-41a3687.125 3687.125 0 017.825-23c1.619-4.675 3.647-10.75 4.507-13.5 1.539-4.923 17.452-51.591 26.256-77 2.477-7.15 5.659-16.6 7.07-21 1.412-4.4 2.964-8.9 3.449-10 .486-1.1 3.575-10.1 6.865-20s10.968-32.625 17.062-50.5c20.836-61.117 25.107-74.257 24.581-75.628-.794-2.07-248.391-2.051-249.185.018m285.987-.719c-.61.456-3.855 8.929-7.212 18.829a33980.33 33980.33 0 01-17.198 50.5c-6.101 17.875-13.961 41.05-17.467 51.5-3.506 10.45-10.479 30.925-15.495 45.5a9823.141 9823.141 0 00-16.539 48.5c-4.08 12.1-12.858 37.975-19.507 57.5-18.654 54.776-17.463 50.91-16.112 52.261.932.932 2.473-.241 6.919-5.268 3.146-3.557 27.969-30.098 55.162-58.98 59.571-63.271 61.178-64.975 72.607-76.996A2457.18 2457.18 0 00716.642 703c7.518-8.084 99.049-105.395 128.393-136.5 23.365-24.767 27.451-29.347 26.782-30.016-.829-.829-194.327-1.634-195.426-.813m-487.082 1.089c-13.11.272-14.239.444-14.818 2.267-.344 1.085-1.072 1.973-1.617 1.973-.546 0-.714-.45-.374-1 .34-.55-.069-1-.91-1-.947 0-1.308.57-.952 1.5.317.825.048 1.5-.598 1.5-1.323 0-.356 4.277 1.092 4.833.477.184.868.971.868 1.75s.45 1.417 1 1.417 1 .675 1 1.5.346 1.5.768 1.5c.423 0 1.435 1.082 2.25 2.404 1.552 2.518 25.339 28.616 42.474 46.6 5.504 5.777 19.233 20.381 30.508 32.453 25.293 27.08 96.048 102.407 116.514 124.043 31.514 33.314 84.215 89.304 89.805 95.408 3.969 4.335 6.144 6.029 6.842 5.331.678-.678.693-1.652.044-2.882-.539-1.021-4.392-11.982-8.561-24.357a21661.143 21661.143 0 00-18.655-55 38182.1 38182.1 0 01-15.984-47c-2.701-7.975-8.996-26.425-13.99-41s-12.412-36.4-16.485-48.5a8641.4 8641.4 0 00-15.491-45.5c-4.448-12.925-10.118-29.575-12.6-37-2.483-7.425-5.236-15.418-6.117-17.762l-1.603-4.262-75.109.245c-41.311.134-81.496.376-89.301.539m-18.496.923c.721.289 1.584.253 1.916-.079.332-.332-.258-.568-1.312-.525-1.165.048-1.402.285-.604.604m-.176 5.095c-.264.428.272 1.668 1.191 2.756.92 1.088 1.588 1.817 1.486 1.619-.103-.197.224-1.437.725-2.756.765-2.012.604-2.397-1.005-2.397-1.054 0-2.132.35-2.397.778" fill="undefined" fill-rule="evenodd"/></svg>